<svg xmlns="http://www.w3.org/2000/svg" width="160.7px" height="136px" viewBox="0 0 160.7 136">
	<style type="text/css">
		.st0{fill:none;stroke:#00233F;stroke-width:2;}
	</style>
	<line class="st0" x1="96.3" y1="27.7" x2="61.7" y2="27.7"/>
	<path class="st0" d="M3,70.3V38.5c0-6,4.8-10.8,10.8-10.8h33.3"/>
	<path class="st0" d="M112.7,27.7h33.8c6,0,10.8,4.9,10.8,10.8V70"/>
	<path class="st0" d="M157.3,76v44.5c0,6-4.9,10.8-10.8,10.8H13.8c-6,0-10.8-4.8-10.8-10.8V76.7"/>
	<line class="st0" x1="3" y1="70.3" x2="157.3" y2="70"/>
	<line class="st0" x1="157.3" y1="76" x2="94.8" y2="76.3"/>
	<line class="st0" x1="64.2" y1="76.4" x2="3" y2="76.7"/>
	<path class="st0" d="M47.2,27.7c0-0.1,0-0.2,0-0.3v-17c0-3.7,3-6.7,6.7-6.7H106c3.7,0,6.7,3,6.7,6.7v17c0,0.1,0,0.2,0,0.3"/>
	<path class="st0" d="M94.8,76.3v16.7c0,5-4,9-9,9H73.2c-5,0-9-4-9-9V76.4"/>
	<path class="st0" d="M84.1,76h-9.1c-2.5,0-4.4,2-4.4,4.4v10.5c0,2.5,2,4.4,4.4,4.4h9.1c2.5,0,4.4-2,4.4-4.4V80.4
		C88.5,78,86.5,76,84.1,76z"/>
	<rect x="61.7" y="18.8" class="st0" width="34.7" height="8.8"/>
</svg>
