<svg xmlns="http://www.w3.org/2000/svg" width="490.2px" height="490.2px" viewBox="0 0 490.2 490.2">
	<style type="text/css">
		.st0{fill:#00233F;}
	</style>
	<path class="st0" d="M334.2,201.7v24.5c0,5.5-7.6,9.9-2.1,9.9s9.9-4.4,9.9-9.9v-24.5c0-8.2-3.6-15.9-9.9-21
		c-18.8-15.4-38.8-26.6-48.2-31.5v-25.9c4.6-4.8,7.2-10.2,7.2-17V70.5c0-23.2-18.9-42.1-42.1-42.1h-7.7
		c-23.2,0-42.1,18.9-42.1,42.1v35.8c0,6.8,2.6,12.2,7.2,17v25.8c-9.4,4.9-29.4,16.1-48.2,31.5c-6.3,5.2-9.9,12.8-9.9,21v24.5
		c0,5.5,4.4,9.9,9.9,9.9s-2.1-4.4-2.1-9.9v-24.5c0-2.2,1-9.3,2.7-10.7c29.9-26.4,41.9-31,46.4-33.1c3.9-1.9,9-4.3,9-8.6v-29.5
		c0-3.3-1.7-3.4-4.4-5.2c-1.7-1.2-2.8-6.1-2.8-8.2V70.5c0-18.5,14-34.3,34.3-34.3h7.7c21.2,1.1,34.2,17.8,34.3,34.3v35.8
		c0,2.1-1,7-2.8,8.2c-2.8,1.8-4.4,1.9-4.4,5.2v29.5c0,4.4,2.5,6.4,6.4,8.3c4.4,2.2,20.8,7.7,48,32.4
		C332.2,191.3,334.2,199.4,334.2,201.7z"/>
	<path class="st0" d="M185.9,427.5V452c0,5.5-7.6,9.9-2.1,9.9s9.9-4.4,9.9-9.9v-24.5c0-8.2-3.6-15.9-9.9-21
		C165,391.1,145,379.9,135.6,375v-25.9c4.6-4.8,7.2-10.2,7.2-17v-35.8c0-23.2-18.9-42.1-42.1-42.1H93c-23.2,0-42.1,18.9-42.1,42.1
		v35.8c0,6.8,2.6,12.2,7.2,17v25.8c-9.4,4.9-29.4,16.1-48.2,31.5c-6.3,5.2-9.9,12.8-9.9,21v24.5c0,5.5,4.4,9.9,9.9,9.9
		s-2.1-4.4-2.1-9.9v-24.5c0-2.2,1-9.3,2.7-10.7c29.9-26.4,41.9-31,46.4-33.1c3.9-1.9,9-4.3,9-8.6v-29.5c0-3.3-1.7-3.4-4.4-5.2
		c-1.7-1.2-2.8-6.1-2.8-8.2v-35.8c0-18.5,14-34.3,34.3-34.3h7.7c21.2,1.1,34.2,17.8,34.3,34.3v35.8c0,2.1-1,7-2.8,8.2
		c-2.8,1.8-4.4,1.9-4.4,5.2V375c0,4.4,2.5,6.4,6.4,8.3c4.4,2.2,20.8,7.7,48,32.4C183.9,417.1,185.9,425.2,185.9,427.5z"/>
	<path class="st0" d="M482.2,427.5V452c0,5.5-7.6,9.9-2.1,9.9s9.9-4.4,9.9-9.9v-24.5c0-8.2-3.6-15.9-9.9-21
		c-18.8-15.4-38.8-26.6-48.2-31.5v-25.9c4.6-4.8,7.2-10.2,7.2-17v-35.8c0-23.2-18.9-42.1-42.1-42.1h-7.7c-23.2,0-42.1,18.9-42.1,42.1
		v35.8c0,6.8,2.6,12.2,7.2,17v25.8c-9.4,4.9-29.4,16.1-48.2,31.5c-6.3,5.2-9.9,12.8-9.9,21v24.5c0,5.5,4.4,9.9,9.9,9.9
		s-2.1-4.4-2.1-9.9v-24.5c0-2.2,1-9.3,2.7-10.7c30-26.4,41.9-31,46.4-33.1c3.9-1.9,9-4.3,9-8.6v-29.5c0-3.3-1.7-3.4-4.4-5.2
		c-1.7-1.2-2.8-6.1-2.8-8.2v-35.8c0-18.5,14-34.3,34.3-34.3h7.7c21.2,1.1,34.2,17.8,34.3,34.3v35.8c0,2.1-1,7-2.8,8.2
		c-2.8,1.8-4.4,1.9-4.4,5.2V375c0,4.4,2.5,6.4,6.4,8.3c4.4,2.2,20.8,7.7,48,32.4C480.2,417.1,482.2,425.2,482.2,427.5z"/>
		<path class="st0" d="M246.8,337.2c-11.9,0-26.7-7.4-33-12.4c-1.9-1.5-2.2-4.2-0.7-6.1s4.2-2.2,6.1-0.7
			c5.4,4.3,18.4,10.5,27.6,10.5c9,0,22.3-4.8,22.3-15.2c0-9.2-9.1-12.9-20.9-16.7l-3.5-1.1c-9.4-3.2-28.9-9.7-28.9-25.5
			c0-15.3,11.9-25.5,29.5-25.5c17.8,0,29,9.1,29.4,9.5c1.8,1.5,2.1,4.3,0.5,6.1c-1.5,1.8-4.2,2.1-6.1,0.6c-0.2-0.1-9.4-7.5-23.9-7.5
			c-12.9,0-20.9,6.5-20.9,16.9c0,8.4,11.6,13.5,23,17.3l3.4,1.1c10.7,3.4,27,8.6,27,24.9C277.8,329.8,259.7,337.2,246.8,337.2z"/>
		<path class="st0" d="M245.3,350.1c-2.4,0-4.3-1.9-4.3-4.3V238.1c0-2.4,1.9-4.3,4.3-4.3s4.3,1.9,4.3,4.3v107.7
			C249.7,348.2,247.7,350.1,245.3,350.1z"/>
</svg>
