<?xml version="1.0" encoding="utf-8"?>
<!-- Generator: Adobe Illustrator 21.0.2, SVG Export Plug-In . SVG Version: 6.00 Build 0)  -->
<svg version="1.1" id="Capa_1" xmlns="http://www.w3.org/2000/svg" xmlns:xlink="http://www.w3.org/1999/xlink" x="0px" y="0px"
	 width="512px" height="512px" viewBox="0 0 512 512" style="enable-background:new 0 0 512 512;" xml:space="preserve">
<style type="text/css">
	.st0{fill:#00233F;}
</style>
<g>
	<path class="st0" d="M328,0C226.5,0,144,82.5,144,184c0,47.6,20.1,92,49.9,124.7l-25.2,25.2c-6.1-3.9-15.3-6.9-22.7-6.9
		c-10.4,0-20.2,4.1-27.6,11.4L11.4,445.3C4.1,452.7,0,462.5,0,472.9s4.1,20.2,11.4,27.6c7.4,7.4,17.2,11.4,27.6,11.4
		s20.2-4.1,27.6-11.4l106.9-106.9c7.4-7.4,11.4-17.2,11.4-27.6c0-8-4.4-17.6-8.8-24l24.9-24.9c32.8,30.4,78.7,51,126.8,51
		c101.5,0,184-82.5,184-184S429.5,0,328,0z M168.3,387.3L61.4,494.2c-4.4,4.4-15.1,8.8-21.3,8.8s-18-3.4-22.3-7.8
		c-4.4-4.4-9.8-14.1-9.8-20.3s1.2-14.7,9.8-23.3l106.9-106.9c7.2-7.2,16.1-8.8,22.3-8.8c6.2,0,16,3.4,20.3,7.8
		c4.4,4.4,8.9,12.2,9.8,18.3C178.2,370,177.4,378.3,168.3,387.3z M328,358c-92.6,0-174-81.4-174-174S235.4,10,328,10
		s174,81.4,174,174S420.6,358,328,358z"/>
	<path class="st0" d="M471.3,133.3c-7.5-21.3-20-41-36.1-57c-16.1-16-35.9-28.4-57.2-35.9c-4.2-1.5-6.7-2.3-8.2,1.9
		c-1.5,4.2,3.7,5.7,7.9,7.2c38.6,13.5,69.8,44.5,83.5,83.1c1.2,3.3,2.2,9.3,5.5,9.3c0.9,0,1.8-0.1,2.7-0.5
		C473.6,140.1,472.8,137.5,471.3,133.3z"/>
	<path class="st0" d="M398.2,230.6c0,0-0.1,0-0.1,0l-24.8-7.7c-2.5-0.7-7.5-2.1-8-2.7l0-16.2c0,0,0.1-0.1,0.1-0.1
		c10.2-12.2,15.9-28,15.9-44.6v-12.1c0-33.3,6-57,2.3-65.4c0,0,0-0.1,0-0.1c-0.1-0.2-0.1-0.3-0.2-0.4c0-0.1-0.1-0.2-0.2-0.3
		c-0.1-0.1-0.1-0.2-0.2-0.4c-0.1-0.1-0.1-0.2-0.2-0.3c-0.1-0.1-0.1-0.2-0.2-0.3c-0.1-0.1-0.2-0.3-0.3-0.4c0-0.1-0.1-0.1-0.2-0.2
		c-0.1-0.1-0.3-0.3-0.4-0.4c0,0-0.1-0.1-0.1-0.1c-0.2-0.1-0.3-0.3-0.5-0.4c0,0-0.1-0.1-0.1-0.1c-0.2-0.1-0.3-0.2-0.5-0.3
		c-0.1,0-0.1-0.1-0.2-0.1c-0.2-0.1-0.3-0.2-0.5-0.3c-0.1,0-0.2-0.1-0.3-0.1c-0.1-0.1-0.3-0.1-0.4-0.2c-0.1,0-0.2-0.1-0.3-0.1
		c-0.1,0-0.3-0.1-0.4-0.1c-0.1,0-0.2-0.1-0.4-0.1c-0.1,0-0.3-0.1-0.4-0.1c-0.1,0-0.2,0-0.3,0c-0.2,0-0.3,0-0.5-0.1
		c-0.1,0-0.2,0-0.3,0c-0.2,0-0.3,0-0.5,0c-0.1,0-0.2,0-0.3,0c-0.2,0-0.4,0-0.6,0.1c0,0-0.1,0-0.1,0c-7.7,1.1-17.1-3.1-27.1-5.5
		c-17.6-4.2-37.5-9-54.9,3.6c-16.8,1.4-23.8,12.6-23.8,31.7c0,13.9,3.4,38.7,4.9,44.2v6.7c0,17.2,6,33.2,15.5,45.1l0,17.3
		c-0.4,0.7-4.4,2-7,2.7l-24.8,7.7c0,0-0.1,0-0.1,0c-19,5.3-28.9,23.9-28.9,39.5v8.6c0,9.5,3.3,12.2,13.5,12.2l85.4,0
		c0.1,0,0.1,5,0.2,5s0.1-5,0.2-5l85.4,0c10.2,0,13.5-2.7,13.5-12.2v-8.6C427.1,254.6,417.2,236,398.2,230.6z M328.1,251.7L294.3,228
		c2.1-2.7,5.5-5.9,5.5-9.8l0-3.4c7.4,4.4,19.7,5.8,28.3,5.8c8.5,0,20.7-0.2,28.1-4.4l0,2.9c0,4,3.4,7.3,5.6,10L328.1,251.7z
		 M284.3,155c0-8,2.4-19.6,4.9-26.9c36.2,0.8,72.6,9.5,83,13.4v4.4c0,0,0,0,0,0.1v13.3c0,14.1-4.3,28-12.6,37c0,0,0,0-0.1,0.1
		c-7.1,7.7-9.6,14.4-31.4,14.4c-29.1,0-43.8-26.3-43.8-52.9V155z M296,88C296,88,296,88,296,88c0.3,0,0.6,0,0.8,0c0.1,0,0.2,0,0.2,0
		c0.2,0,0.4,0,0.5-0.1c0.1,0,0.2,0,0.3-0.1c0.2,0,0.3-0.1,0.5-0.1c0.1,0,0.2-0.1,0.3-0.1c0.1,0,0.3-0.1,0.4-0.2
		c0.1,0,0.2-0.1,0.3-0.2c0.1-0.1,0.3-0.1,0.4-0.2c0.1-0.1,0.2-0.1,0.4-0.2c0.1-0.1,0.2-0.1,0.3-0.2c0.1-0.1,0.3-0.2,0.4-0.3
		c0.1,0,0.1-0.1,0.2-0.1c11.8-9.6,27-6,43.2-2.1c8.7,2.1,19.6,4.2,28.3,4.3c2.1,7.7,4.1,25.4,1.9,41.6c-13-4.7-45.6-13-85.9-13
		c0,0,0,0-0.1,0c-0.2,0-0.4,0-0.6,0c-0.1,0-0.1,0-0.2,0c-0.2,0-0.3,0-0.5,0.1c-0.1,0-0.2,0-0.3,0.1c-0.1,0-0.2,0.1-0.4,0.1
		c-0.1,0-0.3,0.1-0.4,0.1c-0.1,0-0.2,0.1-0.2,0.1c-0.2,0.1-0.3,0.1-0.5,0.2c-0.1,0-0.1,0.1-0.2,0.1c-0.2,0.1-0.3,0.2-0.5,0.2
		c-0.1,0.1-0.2,0.1-0.3,0.2c-0.1,0.1-0.3,0.1-0.4,0.2c-0.2,0.1-0.3,0.2-0.4,0.3c-0.1,0-0.1,0.1-0.2,0.1c-0.2,0.1-0.3,0.3-0.5,0.4
		c0,0-0.1,0-0.1,0.1c-0.1,0.1-0.3,0.3-0.4,0.4c0,0-0.1,0.1-0.1,0.1c-0.1,0.1-0.2,0.3-0.3,0.4c-0.1,0.1-0.1,0.2-0.2,0.3
		c-0.1,0.1-0.1,0.2-0.2,0.3c-0.1,0.1-0.2,0.3-0.2,0.4c0,0.1-0.1,0.2-0.1,0.2c-0.1,0.1-0.1,0.2-0.2,0.3c-0.6-3.8-0.9-12.2-0.9-15
		C280.4,98.1,284.5,88,296,88z M242.5,280c-1.6,0-2.5-0.9-2.5-1.2v-8.6c0-9.6,5.9-25.9,17.2-29.1l27.1-7l38.8,26.5V280L242.5,280z
		 M416.1,278.8c0,0.2-0.8,1.2-2.5,1.2l-80.6,0v-19.4l39.3-25.4l26.6,6.9c11.3,3.2,17.1,14.5,17.1,24.1L416.1,278.8L416.1,278.8z"/>
</g>
</svg>
