<svg xmlns="http://www.w3.org/2000/svg" width="506px" height="95.6px" viewBox="0 0 506 95.6">
	<g fill="#3c3c3c">
		<path d="M9,54.3c0-18.8,16.7-34.9,35.1-34.9C61,19.4,72,31.8,72,46.5c0,14.9-9.8,21.9-17.5,21.9
			c-5.3,0-8.1-3.2-8.6-6.5l-0.1-0.5c-3.1,4.3-8,7.1-12.7,7.1c-8.6,0-13.7-6.3-13.7-14.9c0-11.9,9.7-21.7,20-21.7
			c5.3,0,9.2,2.6,11.1,5.9l1-4.7h10l-4.5,21.6c-0.1,0.5-0.3,1.6-0.3,2.1c0,2.7,1.4,4,3.3,4c3.5,0,8.3-4.2,8.3-14.2
			c0-14-9.6-23.6-24.4-23.6c-16.7,0-31.3,14.7-31.3,31.2c0,13.9,10.6,24.6,25,24.6c6,0,11.4-1.9,16.2-4.9l1.9,2.7
			C50,80,43.6,82.1,37,82.1C20.9,82.1,9,70,9,54.3z M46.8,54.7L49,44.3c-1-1.9-3.3-4.5-7.2-4.5c-7.1,0-12.2,6.4-12.2,12.8
			c0,4.6,2.8,7.8,7.3,7.8C41.6,60.4,44.8,57.3,46.8,54.7z"/>
		<path d="M78.9,75.9V65.7l27.9-37.8H78.9V16.9h44.3V27L95.3,64.8h28.5v11.1H78.9z"/>
		<path d="M130.4,54.5c0-12.4,9.1-22.4,22.1-22.4c12.7,0,21.4,9.6,21.4,23.5v2.5h-31.8c0.7,5.4,5,9.9,12.3,9.9
			c3.6,0,8.7-1.6,11.4-4.2l5,7.3c-4.2,3.9-11,5.9-17.6,5.9C140.2,77,130.4,68.2,130.4,54.5z M152.5,41c-7,0-10,5.2-10.5,9.5H163
			C162.8,46.4,159.9,41,152.5,41z"/>
		<path d="M182.1,75.9V33.2h11.2V39c3-3.8,8.3-6.9,13.6-6.9v11c-0.8-0.2-1.9-0.3-3.1-0.3c-3.7,0-8.7,2.1-10.5,4.9v28.2
			H182.1z"/>
		<path d="M242.8,75.9V50.1c0-5.9-3.1-8-7.9-8c-4.4,0-7.9,2.5-9.7,5v28.8h-11.2V33.2h11.2v5.6c2.7-3.3,8-6.6,15-6.6
			c9.4,0,13.9,5.3,13.9,13.6v30.2H242.8z"/>
		<path d="M262.4,54.5c0-12.1,8.5-22.4,22.6-22.4c14.2,0,22.7,10.3,22.7,22.4c0,12.2-8.5,22.5-22.7,22.5
			C270.9,77,262.4,66.7,262.4,54.5z M295.9,54.5c0-6.6-4-12.4-11-12.4s-10.9,5.8-10.9,12.4c0,6.7,3.9,12.5,10.9,12.5
			S295.9,61.2,295.9,54.5z"/>
		<path d="M310.1,86.9v-7.5h50.4v7.5H310.1z"/>
		<path d="M366.1,75.9v-59h31.1c11.2,0,17,7.2,17,15c0,7.4-4.6,12.4-10.2,13.5c6.3,1,11.3,7.1,11.3,14.5
			c0,8.8-5.9,15.9-17.2,15.9H366.1z M401.3,34.1c0-3.7-2.7-6.5-6.9-6.5h-15.8v12.8h15.8C398.7,40.5,401.3,37.8,401.3,34.1z
			 M402.5,58.2c0-3.7-2.7-6.9-7.6-6.9h-16.2V65h16.2C399.7,65,402.5,62.4,402.5,58.2z"/>
		<path d="M421.8,54.5c0-12.1,8.5-22.4,22.6-22.4c14.2,0,22.7,10.3,22.7,22.4c0,12.2-8.5,22.5-22.7,22.5
			C430.3,77,421.8,66.7,421.8,54.5z M455.3,54.5c0-6.6-4-12.4-11-12.4s-10.9,5.8-10.9,12.4c0,6.7,3.9,12.5,10.9,12.5
			S455.3,61.2,455.3,54.5z"/>
		<path d="M477.5,65.3V43h-7.1v-9.8h7.1V21.5h11.3v11.7h8.7V43h-8.7v19.3c0,2.7,1.4,4.7,3.9,4.7c1.7,0,3.3-0.6,3.9-1.2
			l2.4,8.5c-1.7,1.5-4.7,2.7-9.4,2.7C481.8,77,477.5,72.9,477.5,65.3z"/>
	</g>
</svg>
