<?xml version="1.0" encoding="utf-8"?>
<!-- Generator: Adobe Illustrator 21.0.2, SVG Export Plug-In . SVG Version: 6.00 Build 0)  -->
<svg version="1.1" id="Capa_1" xmlns="http://www.w3.org/2000/svg" xmlns:xlink="http://www.w3.org/1999/xlink" x="0px" y="0px"
	 width="480.5px" height="480.5px" viewBox="0 0 480.5 480.5" style="enable-background:new 0 0 480.5 480.5;" xml:space="preserve"
	>
<style type="text/css">
	.st0{fill:#99CCCC;}
</style>
<g>
	<path class="st0" d="M89.1,220h26.6c17.7,51.9,66.9,89.3,124.6,89.3c41.4,0,78.4-19.2,102.6-49.2h34.2c6.4,0,11.5-5.1,11.5-11.5
		V220h5.2c12.5,0,22.6-10.1,22.6-22.6v-57.8c0-11-7.9-20.2-18.4-22.2c-7.5-34.2-26.1-63.2-54-84.3C315.5,11.4,279.6,0,240.4,0
		C160.7,0,97.9,47.2,82.5,117.9c-9.3,2.8-16,11.5-16,21.6v57.8C66.5,209.9,76.6,220,89.1,220z M89.5,197v-57.1h24.8
		c-3.6,12-5.5,24.6-5.5,37.7c0,6.6,0.5,13,1.4,19.3H89.5z M240.4,286.3c-59.9,0-108.6-48.7-108.6-108.6S180.5,69,240.4,69
		C300.3,69,349,117.8,349,177.7c0,21.9-6.5,42.3-17.7,59.4h-97.6c-6.4,0-11.5,5.1-11.5,11.5c0,6.4,5.1,11.5,11.5,11.5h77.4
		C292.1,276.4,267.4,286.3,240.4,286.3z M365.7,237h-7.9c2.8-5.5,5.2-11.2,7.2-17h0.7L365.7,237L365.7,237z M393.5,197h-22.9
		c0.9-6.3,1.4-12.8,1.4-19.3c0-13.1-1.9-25.8-5.5-37.7h27L393.5,197L393.5,197z M240.4,23c66.3,0,118.8,37.3,134,93.9h-17.2
		C335.1,74.8,291,46,240.4,46c-50.7,0-94.7,28.8-116.7,70.9h-17.2C121.6,60.3,174.2,23,240.4,23z"/>
	<path class="st0" d="M358.5,314.4H122.1c-36.5,0-66.2,29.7-66.2,66.2V469c0,6.4,5.1,11.5,11.5,11.5s11.5-5.1,11.5-11.5v-88.5
		c0-23.8,19.4-43.2,43.2-43.2h236.4c23.8,0,43.2,19.4,43.2,43.2V469c0,6.4,5.1,11.5,11.5,11.5s11.5-5.1,11.5-11.5v-88.5
		C424.7,344.1,395,314.4,358.5,314.4z"/>
</g>
</svg>
