<?xml version="1.0" encoding="utf-8"?>
<!-- Generator: Adobe Illustrator 21.0.2, SVG Export Plug-In . SVG Version: 6.00 Build 0)  -->
<svg version="1.1" id="Capa_1" xmlns="http://www.w3.org/2000/svg" xmlns:xlink="http://www.w3.org/1999/xlink" x="0px" y="0px"
	 width="512px" height="512px" viewBox="0 0 512 512" style="enable-background:new 0 0 512 512;" xml:space="preserve">
<style type="text/css">
	.st0{fill:#99CCCC;}
</style>
<g>
	<path class="st0" d="M112,356c-4.4,0-8,3.6-8,8c0,4.4-3.6,8-8,8s-8-3.6-8-8s3.6-8,8-8c4.4,0,8-3.6,8-8s-3.6-8-8-8
		c-13.2,0-24,10.8-24,24s10.8,24,24,24s24-10.8,24-24C120,359.6,116.4,356,112,356z"/>
	<path class="st0" d="M432,356c-4.4,0-8,3.6-8,8c0,4.4-3.6,8-8,8s-8-3.6-8-8s3.6-8,8-8c4.4,0,8-3.6,8-8s-3.6-8-8-8
		c-13.2,0-24,10.8-24,24s10.8,24,24,24s24-10.8,24-24C440,359.6,436.4,356,432,356z"/>
	<path class="st0" d="M512,252c0-2.2-0.9-4.2-2.4-5.7c-3.4-9.5-10.4-17.4-19.7-22.1c-0.3-0.1-0.5-0.2-0.8-0.3l-26.4-9.9l-16.1-61.2
		c0-0.1,0-0.2-0.1-0.3c-5.1-17-20.5-28.5-38.3-28.5H352v-16c0-8.8-7.2-16-16-16H16c-8.8,0-16,7.2-16,16v224c0,8.8,7.2,16,16,16h26.3
		c-0.8,2.6-1.4,5.3-1.8,8H8c-4.4,0-8,3.6-8,8s3.6,8,8,8h32.6c3.9,27.1,27.3,48,55.4,48s51.5-20.9,55.4-48H168c0,13.2,10.8,24,24,24
		h48c13.2,0,24-10.8,24-24h96.6c3.9,27.1,27.3,48,55.4,48s51.5-20.9,55.4-48H504c4.4,0,8-3.6,8-8s-3.6-8-8-8h-32.6
		c-0.4-2.7-1-5.4-1.8-8H496c8.8,0,16-7.2,16-16v-72c0-1.9-0.1-3.7-0.4-5.6C511.9,253.7,512,252.9,512,252z M496,300h-8v-8h8V300z
		 M489.9,244H352v-16h102.5l28.5,10.7C485.7,240.1,488,241.9,489.9,244z M408.2,140c10.6,0,19.8,6.8,23,17l14.5,55H352v-72H408.2z
		 M48,332H16v-40h248c4.4,0,8-3.6,8-8s-3.6-8-8-8H16V108h320v224h-96h-48h-48c-0.7,0-1.3,0.1-1.9,0.2C132,317.6,115.1,308,96,308
		s-36,9.6-46.1,24.2C49.3,332.1,48.7,332,48,332z M96,404c-22.1,0-40-17.9-40-40s17.9-40,40-40s40,17.9,40,40S118.1,404,96,404z
		 M151.4,356c-0.4-2.7-1-5.4-1.8-8h19.7c-0.9,2.5-1.4,5.2-1.4,8H151.4z M248,372c0,4.4-3.6,8-8,8h-48c-4.4,0-8-3.6-8-8v-8
		c0,0,0,0,0,0s0,0,0,0v-8c0-4.4,3.6-8,8-8h48c4.4,0,8,3.6,8,8V372z M262.6,348H344h18.3c-0.8,2.6-1.4,5.3-1.8,8H264
		C264,353.2,263.5,350.5,262.6,348z M416,404c-22.1,0-40-17.9-40-40s17.9-40,40-40s40,17.9,40,40S438.1,404,416,404z M464,332
		c-0.7,0-1.3,0.1-1.9,0.2C452,317.6,435.1,308,416,308s-36,9.6-46.1,24.2c-0.6-0.2-1.3-0.2-1.9-0.2h-16v-72h144v16h-8
		c-8.8,0-16,7.2-16,16v8c0,8.8,7.2,16,16,16h8v16H464z"/>
	<path class="st0" d="M200,356c-2.1,0-4.2,0.9-5.7,2.3c-1.5,1.5-2.3,3.6-2.3,5.7c0,2.1,0.9,4.2,2.3,5.7c1.5,1.5,3.6,2.3,5.7,2.3
		s4.2-0.9,5.7-2.3c1.5-1.5,2.3-3.6,2.3-5.7c0-2.1-0.9-4.2-2.3-5.7C204.2,356.9,202.1,356,200,356z"/>
	<path class="st0" d="M296,292h16c4.4,0,8-3.6,8-8s-3.6-8-8-8h-16c-4.4,0-8,3.6-8,8S291.6,292,296,292z"/>
</g>
</svg>
