<?xml version="1.0" encoding="utf-8"?>
<!-- Generator: Adobe Illustrator 21.0.2, SVG Export Plug-In . SVG Version: 6.00 Build 0)  -->
<svg version="1.1" id="Layer_1" xmlns="http://www.w3.org/2000/svg" xmlns:xlink="http://www.w3.org/1999/xlink" x="0px" y="0px"
	 width="512px" height="512px" viewBox="0 0 512 512" style="enable-background:new 0 0 512 512;" xml:space="preserve">
<style type="text/css">
	.st0{fill:#99CCCC;}
</style>
<g>
	<g>
		<path class="st0" d="M210.8,33.3c-2.2-5.2-8.1-7.6-13.2-5.5c-65.8,27.4-97,72-111.5,104.5c-9.6,21.5-13.4,40.5-14.9,52.5
			l-58.4-15.7c-3.6-1-7.5,0.1-10,2.9s-3.4,6.6-2.2,10.2l46.8,138.3c1.1,3.2,3.7,5.7,7,6.5c0.9,0.2,1.7,0.3,2.6,0.3
			c2.4,0,4.8-0.9,6.7-2.5l109.7-96.4c2.8-2.5,4-6.3,3.2-9.9c-0.9-3.6-3.6-6.5-7.2-7.5l-46-12.3c-5.4-1.4-11,1.8-12.4,7.2
			c-1.4,5.4,1.8,11,7.2,12.4l27.7,7.4l-84.1,73.9l-35.9-106l51.9,13.9c3,0.8,6.3,0.2,8.8-1.8c2.5-1.9,4-4.9,3.9-8.1
			c0-1,1-103.7,114.9-151.2C210.5,44.4,212.9,38.5,210.8,33.3z"/>
	</g>
</g>
<g>
	<g>
		<path class="st0" d="M475.2,131.2c-13.8-19-28.4-31.9-38-39.1l42.8-42.8c2.6-2.6,3.6-6.5,2.5-10.1c-1.1-3.6-4-6.3-7.7-7L331.6,3.6
			c-3.3-0.7-6.8,0.4-9.1,2.8c-2.4,2.4-3.4,5.8-2.8,9.1l28.6,143.2c0.7,3.7,3.4,6.6,7,7.7c3.6,1.1,7.5,0.1,10.1-2.5l33.7-33.7
			c4-4,4-10.4,0-14.3c-4-4-10.4-4-14.3,0l-20.3,20.3l-22-109.7l109.8,22l-38,38c-2.2,2.2-3.3,5.4-2.9,8.5c0.4,3.1,2.3,5.9,5,7.5
			c3.7,2.1,89.3,53.2,73.5,175.1c-0.7,5.5,3.2,10.6,8.7,11.3c0.4,0.1,0.9,0.1,1.3,0.1c5,0,9.4-3.7,10-8.8
			C519.1,209.2,496.1,160,475.2,131.2z"/>
	</g>
</g>
<g>
	<g>
		<path class="st0" d="M461.1,386.2c-0.9-3.3-3.3-5.9-6.5-7l-138.3-46.8c-3.5-1.2-7.4-0.3-10.2,2.2c-2.7,2.6-3.8,6.4-2.9,10l12.3,46
			c1.4,5.4,7,8.6,12.4,7.2c5.4-1.4,8.6-7,7.2-12.4l-7.4-27.7l106,35.9l-73.9,84.1l-13.9-51.9c-0.8-3-3-5.5-5.9-6.7
			c-2.9-1.2-6.2-1-9,0.6c-0.9,0.5-90.3,51-188.4-23.9c-4.4-3.4-10.8-2.5-14.2,1.9c-3.4,4.4-2.5,10.8,1.9,14.2
			c56.7,43.3,110.8,48,146.2,44.3c23.4-2.4,41.8-8.7,52.9-13.4l15.7,58.4c1,3.6,3.8,6.4,7.5,7.2c0.8,0.2,1.5,0.3,2.3,0.3
			c2.9,0,5.7-1.2,7.6-3.4l96.4-109.7C461.1,393,461.9,389.5,461.1,386.2z"/>
	</g>
</g>
</svg>
