<?xml version="1.0" encoding="utf-8"?>
<!-- Generator: Adobe Illustrator 21.0.2, SVG Export Plug-In . SVG Version: 6.00 Build 0)  -->
<svg version="1.1" id="Layer_1" xmlns="http://www.w3.org/2000/svg" xmlns:xlink="http://www.w3.org/1999/xlink" x="0px" y="0px"
	 width="512px" height="512px" viewBox="0 0 512 512" style="enable-background:new 0 0 512 512;" xml:space="preserve">
<style type="text/css">
	.st0{fill:#99CCCC;}
</style>
<g>
	<g>
		<rect y="483.3" class="st0" width="512" height="15.7"/>
	</g>
</g>
<g>
	<g>
		<path class="st0" d="M383.5,13.1v239.3h15.7V116.5h56.4V476h15.7V13.1H383.5z M455.6,100.8h-56.4V69.5h56.4V100.8z M455.6,53.8
			h-56.4V28.7h56.4V53.8z"/>
	</g>
</g>
<g>
	<g>
		<path class="st0" d="M280,53.8V244h15.7v-87.8h56.4v103.4h15.7V53.8H280z M352.1,140.5h-56.4v-32.4h56.4V140.5z M352.1,92.5h-56.4
			v-23h56.4V92.5z"/>
	</g>
</g>
<g>
	<g>
		<path class="st0" d="M56.4,332.8v47h111.8v-47H56.4z M152.6,364.1H72.1v-15.7h80.5V364.1z"/>
	</g>
</g>
<g>
	<g>
		<path class="st0" d="M176.6,332.8v47h111.8v-47H176.6z M272.7,364.1h-80.5v-15.7h80.5V364.1z"/>
	</g>
</g>
<g>
	<g>
		<rect x="343.8" y="372.5" class="st0" width="48.1" height="15.7"/>
	</g>
</g>
<g>
	<g>
		<path class="st0" d="M264.4,403.9V476H280v-7.3h96.1v7.3h15.7v-72.1H264.4z M376.2,453H280v-9.4h96.1L376.2,453L376.2,453z
			 M376.2,427.9H280v-8.4h96.1L376.2,427.9L376.2,427.9z"/>
	</g>
</g>
<g>
	<g>
		<polygon class="st0" points="295.7,282.3 295.7,250.3 168.2,282.3 168.2,250.4 24,286.2 24,476 39.7,476 39.7,460.3 255,460.3 
			255,444.6 39.7,444.6 39.7,298.5 152.6,270.4 152.6,302.4 280,270.4 280,302.4 407.5,270.4 407.5,444.6 399.2,444.6 399.2,460.3 
			407.5,460.3 407.5,476 423.2,476 423.2,250.3 		"/>
	</g>
</g>
</svg>
