<?xml version="1.0" encoding="utf-8"?>
<!-- Generator: Adobe Illustrator 21.0.2, SVG Export Plug-In . SVG Version: 6.00 Build 0)  -->
<svg version="1.1" id="Capa_1" xmlns="http://www.w3.org/2000/svg" xmlns:xlink="http://www.w3.org/1999/xlink" x="0px" y="0px"
	 width="444px" height="444px" viewBox="0 0 444 444" style="enable-background:new 0 0 444 444;" xml:space="preserve">
<style type="text/css">
	.st0{fill:#99CCCC;}
</style>
<g>
	<path class="st0" d="M434.6,338.1c-41.1,8.8-79.5,10.5-116.4,8.9c3.1-7.8,4.8-16.6,4.8-25.8c0-28.7-15.8-51.2-36-51.2h-58.7
		c-20.2,0-35.9,22.5-35.9,51.2c0,4,0.3,7.9,0.9,11.7c-63.5-8.6-124.5-14.3-189.5,5.3c-2.9,0.9-4.6,4-3.7,6.9s4,4.5,6.9,3.7
		c69.9-21.2,136-11.9,206-2c41.7,5.9,84.2,11.8,129.5,11.8c30.1,0,61.3-2.6,94.3-9.7c3-0.6,4.9-3.6,4.2-6.5
		C440.5,339.4,437.6,337.5,434.6,338.1z M312.1,321.2c0,9.2-2,18-5.6,25.2c-3-0.2-6-0.4-8.9-0.6c0.5-0.8,1-1.5,1.2-2
		c2.4-4.3,5.3-11.8,5.3-22.5c0-3-2.5-5.5-5.5-5.5s-5.5,2.5-5.5,5.5c0,10.6-3.6,17.4-5.9,20.1c-2.3-2.7-5.9-9.5-5.9-20.1
		c0-12.5,5-19.7,7-21.2c2.5-0.5,4.4-2.7,4.4-5.4c0-3-2.5-5.5-5.5-5.5c-5.8,0-10.4,7.3-11.6,9.6c-2.4,4.3-5.3,11.8-5.3,22.5
		c0,10.7,2.9,18.1,5.3,22.5c-3.1-0.3-6.3-0.7-9.4-1c-2.6-6.4-3.9-13.8-3.9-21.4c0-21.8,11.4-40.2,24.9-40.2
		C300.6,281,312.1,299.4,312.1,321.2z M204.9,334.5c-0.9-4.3-1.4-8.7-1.4-13.3c0-21.8,11.4-40.2,24.9-40.2h36.2
		c-8.2,9.3-13.4,23.7-13.4,40.2c0,7,1,13.7,2.8,20c-13.2-1.7-26.3-3.5-39.3-5.3C211.4,335.4,208.1,334.9,204.9,334.5z"/>
	<path class="st0" d="M395,154.4c19,0,34.5-15.5,34.5-34.5S414,85.4,395,85.4s-34.5,15.5-34.5,34.5S375.9,154.4,395,154.4z
		 M395,96.4c13,0,23.5,10.5,23.5,23.5s-10.5,23.5-23.5,23.5s-23.5-10.5-23.5-23.5S382,96.4,395,96.4z"/>
	<path class="st0" d="M35.5,306.9c0,3,2.5,5.5,5.5,5.5h69.9c13.9,0,24.8-15.2,24.8-34.5s-10.9-34.5-24.8-34.5H73.6
		c-13.9,0-24.8,15.2-24.8,34.5c0,9.2,2.5,17.4,6.5,23.5H41C37.9,301.4,35.5,303.9,35.5,306.9z M124.7,277.9
		c0,12.7-6.3,23.5-13.8,23.5S97,290.6,97,277.9s6.3-23.5,13.8-23.5S124.7,265.2,124.7,277.9z M59.7,277.9c0-12.7,6.3-23.5,13.8-23.5
		h19c-4.1,6.1-6.5,14.3-6.5,23.5s2.4,17.4,6.5,23.5h-19C66.1,301.4,59.7,290.6,59.7,277.9z"/>
	<path class="st0" d="M440.1,223.5c-13.3-4-26.8-7.7-40.1-10.9c-2.2-12.1-10-20.9-19.7-20.9h-28.5c-5.8,0-11,3.2-14.7,8.4
		c-25.9-4-52.1-6.6-78.4-7.9c0.8-2.2,1.2-4.6,1.2-7.1c0-9.4-5.6-16.8-12.9-16.8h-15.1c-7.2,0-12.9,7.4-12.9,16.8
		c0,2.2,0.3,4.4,0.9,6.3c-9.1,0-18.2,0.2-27.2,0.6c-2.8-8.7-9.2-14.6-16.7-14.6h-24.6c-8.9,0-16.1,8.2-17.9,19.4
		c-43,5.2-85.7,14.1-127,26.7c-2.9,0.9-4.5,4-3.7,6.9c0.7,2.4,2.9,3.9,5.3,3.9c0.5,0,1.1-0.1,1.6-0.2c40.3-12.2,81.9-21,123.9-26.1
		c0.5,2.9,1.3,5.5,2.5,7.9h-24.5c-3,0-5.5,2.5-5.5,5.5s2.5,5.5,5.5,5.5H176c10,0,17.9-10.4,18.3-23.8c46.1-1.8,92.6,0.7,138.2,7.6
		c-0.7,2.8-1,5.7-1,8.8c0,6.3,1.5,12.1,4,16.7h-29.7c-3,0-5.5,2.5-5.5,5.5s2.5,5.5,5.5,5.5h74.5c10.2,0,18.4-9.8,20-23.1
		c12.2,3,24.4,6.4,36.6,10c0.5,0.2,1.1,0.2,1.6,0.2c2.4,0,4.5-1.5,5.3-3.9C444.6,227.4,443,224.4,440.1,223.5z M144.1,202.1
		c0-7.8,3.8-13.7,7.3-13.7h9.3c-1.9,3.9-3,8.6-3,13.7s1.1,9.8,3,13.7h-9.3C148,215.8,144.1,210,144.1,202.1z M176,215.8
		c-3.4,0-7.3-5.8-7.3-13.7s3.8-13.7,7.3-13.7s7.3,5.8,7.3,13.7S179.5,215.8,176,215.8z M249.9,185.1c0,3.9-1.7,6.2-2.6,6.7
		c-0.2,0-0.4,0-0.6,0c-0.9-0.5-2.5-2.8-2.5-6.7c0-4.4,2.1-6.8,2.9-6.8S249.9,180.7,249.9,185.1z M231.9,178.4h3.4
		c-0.7,2.1-1.1,4.4-1.1,6.8c0,2.3,0.3,4.4,0.9,6.4c-1.3,0-2.7,0-4,0c-0.9-0.9-2.1-3-2.1-6.3C229.1,180.7,231.2,178.4,231.9,178.4z
		 M342.5,219.4c0-9.8,4.9-16.7,9.3-16.7H364c-2.5,4.6-4,10.4-4,16.7s1.5,12.1,4,16.7h-12.2C347.4,236.1,342.5,229.2,342.5,219.4z
		 M380.3,236.1c-4.4,0-9.3-6.8-9.3-16.7c0-9.8,4.9-16.7,9.3-16.7c4.4,0,9.3,6.8,9.3,16.7C389.6,229.2,384.7,236.1,380.3,236.1z"/>
</g>
</svg>
