<?xml version="1.0" encoding="utf-8"?>
<!-- Generator: Adobe Illustrator 21.0.2, SVG Export Plug-In . SVG Version: 6.00 Build 0)  -->
<svg version="1.1" id="Capa_1" xmlns="http://www.w3.org/2000/svg" xmlns:xlink="http://www.w3.org/1999/xlink" x="0px" y="0px"
	 width="507.3px" height="507.3px" viewBox="0 0 507.3 507.3" style="enable-background:new 0 0 507.3 507.3;" xml:space="preserve"
	>
<style type="text/css">
	.st0{fill:#99CCCC;}
</style>
<g>
	<path class="st0" d="M95.5,414.1c-2,0-3.9,0.8-5.3,2.2c-1.4,1.4-2.2,3.3-2.2,5.3s0.8,3.9,2.2,5.3c1.4,1.4,3.3,2.2,5.3,2.2
		s3.9-0.8,5.3-2.2c1.4-1.4,2.2-3.3,2.2-5.3s-0.8-3.9-2.2-5.3C99.4,414.9,97.5,414.1,95.5,414.1z"/>
	<path class="st0" d="M290.2,416.3c-1.4,1.4-2.2,3.3-2.2,5.3c0,2,0.8,3.9,2.2,5.3c1.4,1.4,3.3,2.2,5.3,2.2c2,0,3.9-0.8,5.3-2.2
		c1.4-1.4,2.2-3.3,2.2-5.3s-0.8-3.9-2.2-5.3c-1.4-1.4-3.3-2.2-5.3-2.2C293.5,414.1,291.6,414.9,290.2,416.3z"/>
	<path class="st0" d="M271.5,414.1h-152c-4.1,0-7.5,3.4-7.5,7.5s3.4,7.5,7.5,7.5h152c4.1,0,7.5-3.4,7.5-7.5S275.6,414.1,271.5,414.1
		z"/>
	<path class="st0" d="M498.1,271.8c-6.6-6.6-15.5-9.7-24.1-9.1l-10.5-23.7c4.7-4.3,7.6-10.5,7.6-17.3c0-10.3-6.7-19.1-16-22.3v-92.8
		l6.4-8.3c0.7-0.8,1.1-1.8,1.3-2.8c5-4.3,8.2-10.7,8.2-17.8c0-13-10.5-23.5-23.5-23.5c-11.9,0-21.8,8.9-23.3,20.5l-16.9,19.6
		c-0.9,0.2-1.8,0.5-2.6,1L69.4,302.1H55.5c-13,0-23.5,10.5-23.5,23.5v8.5H15.5c-8.5,0-15.5,7-15.5,15.5v40c0,8.5,7,15.5,15.5,15.5
		h53.2c-3,4.8-4.7,10.5-4.7,16.5c0,17.4,14.1,31.5,31.5,31.5h200c17.4,0,31.5-14.1,31.5-31.5c0-17.4-14.1-31.5-31.5-31.5H271v-45.9
		l169-218.3v73.5c-9.3,3.1-16,11.9-16,22.3c0,6.8,2.9,13,7.6,17.3L420.9,263c-9.8-1.7-20.2,1.2-27.7,8.7
		c-12.3,12.3-12.3,32.3,0,44.5l11.3,11.3c0,0,0,0,0,0c0,0,0,0,0,0l11.3,11.3c1.5,1.5,3.4,2.2,5.3,2.2s3.8-0.7,5.3-2.2
		c2.9-2.9,2.9-7.7,0-10.6l-6-6l25.2-25.2l25.2,25.2l-6,6c-2.9,2.9-2.9,7.7,0,10.6c1.5,1.5,3.4,2.2,5.3,2.2s3.8-0.7,5.3-2.2
		l11.3-11.3c0,0,0,0,0.1,0s0,0,0-0.1l11.3-11.3c6-5.9,9.2-13.9,9.2-22.3S504,277.7,498.1,271.8z M447.5,69.1c4.7,0,8.5,3.8,8.5,8.5
		s-3.8,8.5-8.5,8.5s-8.5-3.8-8.5-8.5S442.8,69.1,447.5,69.1z M256,363.7l-23.2-6.6c-10.5-3-17.8-12.7-17.8-23.6v-16.4h16.5
		c13.5,0,24.5,11,24.5,24.5V363.7z M200.1,335.8c-2.7-1-5.5-1.6-8.6-1.6H183v-16.5c0-0.3,0.2-0.5,0.5-0.5H200v16.4
		C200,334.3,200,335,200.1,335.8z M228.1,302.1h-44.6c-8.5,0-15.5,7-15.5,15.5v16.5h-57v-8.5c0-10.1-6.4-18.8-15.4-22.1l280.3-173
		L228.1,302.1z M47,325.6c0-4.7,3.8-8.5,8.5-8.5h16c0,0,0,0,0,0c0,0,0,0,0,0h16c4.7,0,8.5,3.8,8.5,8.5v8.5H47V325.6z M15,389.6
		v-16.5h16.5c4.1,0,7.5-3.4,7.5-7.5s-3.4-7.5-7.5-7.5H15v-8.5c0-0.3,0.2-0.5,0.5-0.5h176c4.7,0,8.5,3.8,8.5,8.5v0.5H63.5
		c-4.1,0-7.5,3.4-7.5,7.5s3.4,7.5,7.5,7.5H200v17H95.5h-80C15.2,390.1,15,389.9,15,389.6z M312,421.6c0,9.1-7.4,16.5-16.5,16.5h-200
		c-9.1,0-16.5-7.4-16.5-16.5c0-9.1,7.4-16.5,16.5-16.5h112h88C304.6,405.1,312,412.5,312,421.6z M215,390.1v-25.7
		c4,3.2,8.6,5.6,13.6,7l27.4,7.8v10.8H215z M267.2,324.7c-4.3-9.1-12.1-16.3-21.5-19.9L429,92.1c2.8,3.6,6.6,6.4,11,7.8v1.5
		L267.2,324.7z M447.5,213.1c4.7,0,8.5,3.8,8.5,8.5s-3.8,8.5-8.5,8.5s-8.5-3.8-8.5-8.5S442.8,213.1,447.5,213.1z M409.8,311.7l-6-6
		c-6.4-6.4-6.4-16.9,0-23.3c3.2-3.2,7.4-4.8,11.7-4.8s8.5,1.6,11.7,4.8l6,6L409.8,311.7z M445.6,279.6l-7.9-7.9c-1-1-2-1.9-3.1-2.7
		l10.7-24c0.7,0.1,1.5,0.1,2.2,0.1s1.5,0,2.2-0.1l9.8,22.1c-2.1,1.3-4.1,2.8-6,4.7L445.6,279.6z M487.5,305.7l-6,6l-23.3-23.3l6-6
		c6.4-6.4,16.9-6.4,23.3,0c3.1,3.1,4.8,7.3,4.8,11.7S490.6,302.6,487.5,305.7z"/>
</g>
</svg>
