<?xml version="1.0" encoding="utf-8"?>
<!-- Generator: Adobe Illustrator 21.0.2, SVG Export Plug-In . SVG Version: 6.00 Build 0)  -->
<svg version="1.1" id="Capa_1" xmlns="http://www.w3.org/2000/svg" xmlns:xlink="http://www.w3.org/1999/xlink" x="0px" y="0px"
	 width="408px" height="408px" viewBox="0 0 408 408" style="enable-background:new 0 0 408 408;" xml:space="preserve">
<style type="text/css">
	.st0{fill:#99CCCC;}
</style>
<g>
	<path class="st0" d="M204,0C91.5,0,0,91.5,0,204s91.5,204,204,204s204-91.5,204-204S316.5,0,204,0z M204,396
		C98.1,396,12,309.9,12,204S98.1,12,204,12s192,86.1,192,192S309.9,396,204,396z"/>
	<path class="st0" d="M255.7,204c0-28.5-23.2-51.7-51.7-51.7s-51.7,23.2-51.7,51.7c0,28.5,23.2,51.7,51.7,51.7
		S255.7,232.5,255.7,204z M204,243.7c-21.9,0-39.7-17.8-39.7-39.7s17.8-39.7,39.7-39.7s39.7,17.8,39.7,39.7S225.9,243.7,204,243.7z"
		/>
	<path class="st0" d="M364.4,241.1C364.4,241.1,364.4,241.1,364.4,241.1c-40.5-10.8-84.1,0.9-113.7,30.5
		c-25.5,25.5-37.8,60.7-33.7,96.6c0,0,0,0,0,0c0,0,0,0,0,0c0.4,3.1,2.9,5.3,6,5.3c0.2,0,0.5,0,0.7,0c34.2-3.9,66-17.9,92.1-40.6
		c25.8-22.4,44.1-51.6,53-84.4C369.5,245.2,367.6,241.9,364.4,241.1z M307.8,323.8c-22.7,19.7-50,32.3-79.5,36.9
		c-1.7-30.1,9.4-59.2,30.8-80.6c25.2-25.2,61.5-35.9,96.2-28.8C346.6,279.3,330.3,304.3,307.8,323.8z"/>
	<path class="st0" d="M43.6,241.1C43.6,241.1,43.6,241.1,43.6,241.1C43.6,241.1,43.6,241.1,43.6,241.1c-3.2,0.9-5.1,4.2-4.2,7.4
		c8.8,32.8,27.2,62,53,84.4c26.1,22.6,57.9,36.6,92.1,40.6c0.2,0,0.5,0,0.7,0c3,0,5.6-2.3,6-5.3c0,0,0,0,0,0c0,0,0,0,0,0
		c4.1-35.9-8.2-71.1-33.7-96.6C127.7,241.9,84.1,230.2,43.6,241.1z M179.6,360.7c-29.4-4.5-56.8-17.2-79.5-36.9
		c-22.4-19.5-38.8-44.4-47.5-72.5c34.7-7.1,71,3.6,96.2,28.8C170.3,301.5,181.3,330.6,179.6,360.7z"/>
	<path class="st0" d="M323.7,82.6C291.6,50.9,249.1,33.5,204,33.5S116.3,50.9,84.2,82.6c-32.1,31.7-50.1,73.9-50.7,118.9
		c0,2.5,1.5,4.8,3.9,5.7c0.7,0.2,1.4,0.4,2.1,0.4c1.8,0,3.5-0.8,4.6-2.2c35.8-43.4,95.5-69.2,159.9-69.2s124.1,25.9,159.9,69.2
		c1.6,2,4.3,2.7,6.7,1.8c2.4-0.9,4-3.2,3.9-5.7C373.8,156.5,355.8,114.3,323.7,82.6z M204,124.2c-61.3,0-118.8,22.4-157.4,60.7
		c4.2-35.5,20.3-68.3,46.1-93.8c29.9-29.5,69.4-45.7,111.3-45.7s81.5,16.2,111.3,45.7c25.8,25.5,41.8,58.3,46.1,93.8
		C322.8,146.6,265.3,124.2,204,124.2z"/>
</g>
</svg>
