<?xml version="1.0" encoding="utf-8"?>
<!-- Generator: Adobe Illustrator 21.0.2, SVG Export Plug-In . SVG Version: 6.00 Build 0)  -->
<svg version="1.1" id="Capa_1" xmlns="http://www.w3.org/2000/svg" xmlns:xlink="http://www.w3.org/1999/xlink" x="0px" y="0px"
	 width="240.9px" height="240.9px" viewBox="0 0 240.9 240.9" style="enable-background:new 0 0 240.9 240.9;" xml:space="preserve"
	>
<style type="text/css">
	.st0{fill:#99CCCC;}
</style>
<g>
	<path class="st0" d="M148.3,80c0,2.5,2,4.5,4.5,4.5c2.5,0,4.5-2,4.5-4.5c0-8.3-4-16.1-11.2-21.9c-5.8-4.7-13.2-7.6-21.2-8.4v-8.6
		c0-2.5-2-4.5-4.5-4.5s-4.5,2-4.5,4.5v8.6c-8,0.8-15.4,3.7-21.2,8.4C87.5,64,83.5,71.7,83.5,80c0,8.3,4,16.1,11.2,21.9
		c5.8,4.7,13.2,7.6,21.2,8.4V153c-13.2-1.7-23.3-10.5-23.3-21.1c0-2.5-2-4.5-4.5-4.5s-4.5,2-4.5,4.5c0,8.3,4,16.1,11.2,21.9
		c5.8,4.7,13.2,7.6,21.2,8.4v8.7c0,2.5,2,4.5,4.5,4.5s4.5-2,4.5-4.5v-8.7c8-0.8,15.4-3.7,21.2-8.4c7.2-5.8,11.2-13.5,11.2-21.9
		s-4-16.1-11.2-21.9c-5.8-4.7-13.2-7.6-21.2-8.4V58.9C138.2,60.6,148.3,69.4,148.3,80z M92.6,80c0-10.6,10.1-19.4,23.3-21.1v42.2
		C102.7,99.5,92.6,90.7,92.6,80z M148.3,131.9c0,10.6-10.1,19.4-23.3,21.1v-42.2C138.2,112.4,148.3,121.3,148.3,131.9z"/>
	<path class="st0" d="M211,178.4c8.6-9.2,15.5-19.7,20.3-31.4c5.5-13,8.2-26.8,8.2-41c0-14.3-2.8-28.2-8.3-41.3
		c-5.3-12.6-13-24-22.7-33.7c-9.7-9.7-21.1-17.4-33.7-22.7c-13.1-5.5-27-8.3-41.3-8.3c0,0-28,0.1-28,0.1C91.4,0.3,77.8,3.3,64.9,8.9
		C52.5,14.3,41.4,22,31.8,31.7c-9.6,9.7-17.1,21-22.3,33.5c-5.4,13-8.2,26.7-8.2,40.9c0,14.2,2.8,28,8.2,41
		c4.9,11.6,11.7,22.1,20.3,31.4L6.2,234.7c-0.7,1.8-0.3,3.8,1.1,5.1c0.9,0.8,1.9,1.2,3,1.2c0.7,0,1.5-0.2,2.1-0.5l62.3-33.5
		c10.5,3.4,21.4,5.1,32.5,5.1c0,0,28-0.1,28-0.1c10.5-0.2,20.8-1.9,30.6-5l62.4,33.5c0.7,0.4,1.4,0.5,2.1,0.5c1.1,0,2.2-0.4,3-1.2
		c1.4-1.3,1.9-3.3,1.1-5.1L211,178.4z M168.8,198.1c-1.1-0.7-2.5-0.9-3.8-0.4c-9.5,3.3-19.5,5-29.7,5.2l-27.9,0.1
		c-10.8,0-21.3-1.8-31.4-5.2c-1.3-0.5-2.7-0.3-3.8,0.4c0,0-52.6,28.2-52.6,28.2l19.8-47.3c0,0,0,0,0,0c0.7-1.6,0.4-3.6-0.9-5
		c-18-18.3-28-42.5-28-68.1c0-52.5,42.7-96,95.3-96.9L133.6,9c53.5,0,97,43.5,97,97c0,25.7-10,49.9-28.1,68.2
		c-1.3,1.3-1.6,3.3-0.9,5c0,0,0,0,0,0l19.9,47.2C221.4,226.4,168.8,198.2,168.8,198.1z"/>
</g>
</svg>
