<?xml version="1.0" encoding="utf-8"?>
<!-- Generator: Adobe Illustrator 21.0.2, SVG Export Plug-In . SVG Version: 6.00 Build 0)  -->
<svg version="1.1" id="Layer_1" xmlns="http://www.w3.org/2000/svg" xmlns:xlink="http://www.w3.org/1999/xlink" x="0px" y="0px"
	 width="512px" height="512px" viewBox="0 0 512 512" style="enable-background:new 0 0 512 512;" xml:space="preserve">
<style type="text/css">
	.st0{fill:#99CCCC;}
</style>
<g>
	<g>
		<path class="st0" d="M381.5,56.7l-73.9,73.9l6.5,6.6l-66.8,25.8l-53.2-21.4l10.2-10.2l-73.9-73.9L0,187.9l73.9,73.9l9.7-9.7
			l36,57.1c-2.2,4.5-3.4,9.5-3.4,14.6c0,8.8,3.4,17.2,9.7,23.4c5.9,5.9,13.7,9.3,22,9.6c0.3,8,3.5,15.9,9.6,22
			c5.9,5.9,13.7,9.3,22,9.7c0.3,8.3,3.7,16.1,9.6,22c5.9,5.9,13.7,9.3,22,9.7c0.3,8.3,3.7,16.1,9.6,22c6.3,6.3,14.6,9.7,23.4,9.7
			c0.9,0,1.8-0.1,2.6-0.1c4.6,2.3,9.7,3.6,15,3.6c8.8,0,17.1-3.4,23.4-9.7c6.1-6.1,9.3-14,9.6-22c8.3-0.3,16.1-3.7,22-9.7
			c5.9-5.9,9.3-13.7,9.7-22c8.3-0.3,16.1-3.7,22-9.6c5.9-5.9,9.3-13.7,9.6-22c8.3-0.3,16.1-3.7,22-9.7c10.5-10.5,12.5-26.5,5.7-39
			l44.4-58.2l7.7,7.7l73.9-73.9L381.5,56.7z M73.9,231.6l-43.7-43.7L130.5,87.6l43.7,43.7L73.9,231.6z M157.6,332
			c-2.2,2.2-5.2,3.4-8.3,3.4c-3.1,0-6.1-1.2-8.3-3.4c-2.2-2.2-3.4-5.2-3.4-8.3c0-3.1,1.2-6.1,3.4-8.3l11-11.1
			c2.2-2.2,5.2-3.4,8.3-3.4c3.1,0,6.1,1.2,8.3,3.4c4.6,4.6,4.6,12,0,16.6L157.6,332z M189.3,363.7c-2.2,2.2-5.2,3.4-8.3,3.4
			c-3.1,0-6.1-1.2-8.3-3.4c-4.6-4.6-4.6-12,0-16.6l11-11c2.2-2.2,5.2-3.4,8.3-3.4c3.1,0,6.1,1.2,8.3,3.4s3.4,5.2,3.4,8.3
			s-1.2,6.1-3.4,8.3L189.3,363.7z M221,395.4c-2.2,2.2-5.2,3.4-8.3,3.4s-6.1-1.2-8.3-3.4c-2.2-2.2-3.4-5.2-3.4-8.3
			c0-3.1,1.2-6.1,3.4-8.3l11-11c2.2-2.2,5.2-3.4,8.3-3.4s6.1,1.2,8.3,3.4c4.6,4.6,4.6,12,0,16.6L221,395.4z M263.7,416l-11,11
			c-2.2,2.2-5.2,3.4-8.3,3.4c-3.1,0-6.1-1.2-8.3-3.4c-2.2-2.2-3.4-5.2-3.4-8.3s1.2-6.1,3.4-8.3l11-11c2.2-2.2,5.2-3.4,8.3-3.4
			s6.1,1.2,8.3,3.4c2.2,2.2,3.4,5.2,3.4,8.3C267.1,410.9,265.9,413.8,263.7,416z M365.3,335.6c-2.2,2.2-5.2,3.4-8.3,3.4
			c-3,0-5.9-1.1-8.1-3.2l-29.1-29.1c-4.2-4.2-10.9-4.2-15.1,0c-4.2,4.2-4.2,10.9,0,15.1l29.1,29.1c4.3,4.6,4.2,11.9-0.3,16.3
			c-2.2,2.2-5.2,3.4-8.3,3.4c-3,0-5.9-1.2-8.1-3.2l-29.1-29.1c-4.2-4.2-10.9-4.2-15.1,0c-4.2,4.2-4.2,10.9,0,15.1l29.1,29.1
			c4.3,4.6,4.2,11.9-0.2,16.3c-2.2,2.2-5.2,3.4-8.3,3.4c-2.1,0-4.2-0.6-6-1.6c-1.3-6.2-4.4-11.8-8.9-16.3c-5.9-5.9-13.7-9.3-22-9.7
			c-0.3-8-3.5-15.9-9.6-22c-5.9-5.9-13.7-9.3-22-9.7c-0.3-8.3-3.7-16.1-9.6-22c-5.9-5.9-13.7-9.3-22-9.6c-0.3-8-3.5-15.9-9.6-22
			c-6.2-6.2-14.5-9.7-23.4-9.7c-8.8,0-17.1,3.4-23.4,9.7l-2.9,2.9l-35.1-55.5l11.3-11.3l67.5-67.5l46.9,18.9l-31.1,31.1
			c-12.9,12.9-12.9,34,0,46.9c6.3,6.3,14.6,9.7,23.5,9.7c8.8,0,17.1-3.4,23.3-9.6l16.2-15.1l16.4-4.2l15.8,9.6l6.5,3.9l67.8,67.5
			l2.2,2.2C369.8,323.5,369.8,331,365.3,335.6z M371.7,295.3l-63.2-62.9l-32.1-19.5l-30.3,7.8l-20.3,18.9l-0.3,0.3
			c-2.2,2.2-5.2,3.5-8.4,3.5s-6.1-1.2-8.4-3.5c-4.6-4.6-4.6-12.1,0-16.8l36.3-36.3l85.7-33.1l84.5,84.5L371.7,295.3z M438.1,230.9
			L337.8,130.6l43.7-43.7l100.3,100.3L438.1,230.9z"/>
	</g>
</g>
<g>
	<g>
		<path class="st0" d="M85.5,190.5c-4.2-4.2-10.9-4.2-15.1,0s-4.2,10.9,0,15.1s10.9,4.2,15.1,0S89.6,194.7,85.5,190.5z"/>
	</g>
</g>
</svg>
