<?xml version="1.0" encoding="utf-8"?>
<!-- Generator: Adobe Illustrator 21.0.2, SVG Export Plug-In . SVG Version: 6.00 Build 0)  -->
<svg version="1.1" id="Layer_1" xmlns="http://www.w3.org/2000/svg" xmlns:xlink="http://www.w3.org/1999/xlink" x="0px" y="0px"
	 width="512px" height="512px" viewBox="0 0 512 512" style="enable-background:new 0 0 512 512;" xml:space="preserve">
<style type="text/css">
	.st0{fill:#99CCCC;}
</style>
<g>
	<g>
		<path class="st0" d="M430.5,0H81.5C61.7,0,46.5,15.1,46.5,34.9c0,15.1,9.3,27.9,23.3,32.6v86.1c-14,4.7-23.3,17.5-23.3,32.6
			s9.3,27.9,23.3,32.6v74.5c-14,4.7-23.3,17.5-23.3,32.6s9.3,27.9,23.3,32.6v48.9c0,7,4.7,11.6,11.6,11.6s11.6-4.7,11.6-11.6v-46.5
			h93.1c7,0,11.6-4.7,11.6-11.6c0-7-4.7-11.6-11.6-11.6H81.5c-7,0-11.6-4.7-11.6-11.6s4.7-11.6,11.6-11.6h69.8
			c7,0,11.6-4.7,11.6-11.6s-4.7-11.6-11.6-11.6H93.1v-69.8h46.5c7,0,11.6-4.7,11.6-11.6c0-7-4.7-11.6-11.6-11.6H81.5
			c-7,0-11.6-4.7-11.6-11.6s4.7-11.6,11.6-11.6h104.7c7,0,11.6-4.7,11.6-11.6c0-7-4.7-11.6-11.6-11.6H93.1V58.2
			c0-7-4.7-11.6-11.6-11.6s-11.6-4.7-11.6-11.6c0-7,4.7-11.6,11.6-11.6h349.1c7,0,11.6,4.7,11.6,11.6c0,7-4.7,11.6-11.6,11.6H128
			c-7,0-11.6,4.7-11.6,11.6S121,69.8,128,69.8h302.5c19.8,0,34.9-15.1,34.9-34.9C465.5,15.1,450.3,0,430.5,0z"/>
	</g>
</g>
<g>
	<g>
		<path class="st0" d="M265.3,179.2c-4.7-5.8-14-5.8-18.6,0c-4.7,7-48.9,67.5-48.9,102.4c0,31.4,25.6,55.9,58.2,55.9
			s58.2-25.6,58.2-55.9C314.2,246.7,270,186.2,265.3,179.2z M256,314.2c-19.8,0-34.9-15.1-34.9-32.6c0-16.3,18.6-50,34.9-74.5
			c16.3,23.3,34.9,57,34.9,74.5C290.9,300.2,275.8,314.2,256,314.2z"/>
	</g>
</g>
<g>
	<g>
		<path class="st0" d="M465.5,325.8c0-15.1-9.3-27.9-23.3-32.6v-74.5c14-4.7,23.3-17.5,23.3-32.6s-9.3-27.9-23.3-32.6v-48.9
			c0-7-4.7-11.6-11.6-11.6s-11.6,4.7-11.6,11.6v46.5h-93.1c-7,0-11.6,4.7-11.6,11.6c0,7,4.7,11.6,11.6,11.6h104.7
			c7,0,11.6,4.7,11.6,11.6s-4.7,11.6-11.6,11.6H384c-7,0-11.6,4.7-11.6,11.6c0,7,4.7,11.6,11.6,11.6h34.9v69.8H384
			c-7,0-11.6,4.7-11.6,11.6s4.7,11.6,11.6,11.6h46.5c7,0,11.6,4.7,11.6,11.6s-4.7,11.6-11.6,11.6h-81.5c-7,0-11.6,4.7-11.6,11.6
			c0,7,4.7,11.6,11.6,11.6h69.8v93.1c0,7,4.7,11.6,11.6,11.6s11.6,4.7,11.6,11.6s-4.7,11.6-11.6,11.6H81.5c-7,0-11.6-4.7-11.6-11.6
			s4.7-11.6,11.6-11.6H384c7,0,11.6-4.7,11.6-11.6s-4.7-11.6-11.6-11.6H81.5c-19.8,0-34.9,15.1-34.9,34.9
			c0,19.8,15.1,34.9,34.9,34.9h349.1c19.8,0,34.9-15.1,34.9-34.9c0-15.1-9.3-27.9-23.3-32.6v-86.1
			C456.1,353.7,465.5,340.9,465.5,325.8z"/>
	</g>
</g>
</svg>
