<?xml version="1.0" encoding="utf-8"?>
<!-- Generator: Adobe Illustrator 21.0.2, SVG Export Plug-In . SVG Version: 6.00 Build 0)  -->
<svg version="1.1" id="Capa_1" xmlns="http://www.w3.org/2000/svg" xmlns:xlink="http://www.w3.org/1999/xlink" x="0px" y="0px"
	 width="172.7px" height="172.7px" viewBox="0 0 172.7 172.7" style="enable-background:new 0 0 172.7 172.7;" xml:space="preserve"
	>
<style type="text/css">
	.st0{fill:#99CCCC;}
</style>
<path class="st0" d="M164.6,172.7H8.1c-1.4,0-2.5-1.1-2.5-2.5v-29.9c0-11.5,6.9-21.8,17.6-26l37-14.8c0.6-0.3,1.3-0.2,2,0
	c0.6,0.3,1.1,0.8,1.3,1.4l11,30.3l3.7-10.5l-3.2-7.8c-0.3-0.8-0.2-1.6,0.2-2.3c0.5-0.7,1.2-1.1,2.1-1.1h18.1c0.8,0,1.6,0.4,2.1,1.1
	c0.5,0.7,0.6,1.6,0.2,2.3l-3.2,7.8l3.7,10.5l11-30.3c0.2-0.6,0.7-1.2,1.3-1.4c0.6-0.3,1.3-0.3,2,0l37,14.8
	c10.7,4.3,17.6,14.5,17.6,26v29.9C167.1,171.6,166,172.7,164.6,172.7z M10.6,167.7h151.5v-27.4c0-9.5-5.7-17.9-14.5-21.4l0,0
	L113,105l-12.5,34.5c-0.4,1-1.3,1.6-2.4,1.6c0,0,0,0,0,0c-1.1,0-2-0.7-2.3-1.7l-6.3-18.1c-0.2-0.6-0.2-1.2,0-1.8l2.1-5.2H81l2.1,5.2
	c0.2,0.6,0.2,1.2,0,1.8l-6.3,18.1c-0.3,1-1.3,1.7-2.3,1.7c-1.1,0-2-0.7-2.4-1.6L59.7,105l-34.6,13.9c-8.8,3.5-14.5,11.9-14.5,21.4
	L10.6,167.7L10.6,167.7z M142.3,163.1h-28.8c-1.4,0-2.5-1.1-2.5-2.5v-17.8c0-1.4,1.1-2.5,2.5-2.5h28.8c1.4,0,2.5,1.1,2.5,2.5v17.8
	C144.8,162,143.6,163.1,142.3,163.1z M115.9,158.1h23.8v-12.8h-23.8V158.1z M86.3,97c-3.9,0-7.9-0.7-11.5-2.2
	c-2.8-1.1-5.2-2.5-7-4.2c-5-4.6-10.1-14.6-12-18.4c-3.3-0.2-9.8-2-12.6-12.7c-1.4-5.4-1.1-9.7,1-12.9c1.1-1.7,2.5-2.8,3.7-3.3
	c-0.1-5.1,0.5-19.3,9.5-30C68.5,0.2,85.6,0,86.3,0s17.9,0.2,28.9,13.2c9,10.7,9.6,24.9,9.5,30c1.2,0.6,2.6,1.6,3.7,3.3
	c2,3.2,2.4,7.5,1,12.9c-2.8,10.7-9.3,12.5-12.6,12.7c-1.9,3.8-7,13.8-12,18.4c-1.8,1.7-4.1,3.1-7,4.2C94.2,96.2,90.3,97,86.3,97z
	 M57.4,67.1c1,0,1.8,0.6,2.3,1.4c0.1,0.1,6.2,13.3,11.6,18.3c1.3,1.2,3.1,2.3,5.4,3.2c6.2,2.4,13.2,2.4,19.4,0
	c2.3-0.9,4.1-2,5.4-3.2c5.4-5,11.5-18.2,11.6-18.3c0.5-1.1,1.6-1.6,2.8-1.4c0.6,0.1,6.3,0.8,8.8-9c1-3.9,0.9-7-0.3-8.9
	c-1-1.5-2.5-1.9-2.5-1.9c-1.3-0.2-2.2-1.4-2.1-2.7l0,0c0-0.1,0.4-5.5-1-12.3c-6.6,0.6-25.6,1.9-35.2-2.3c-6.5-2.9-10.9-6.3-13.6-8.7
	c-1,2.8-2.6,6.3-5,9c-4.2,4.5-9.3,6.9-11.9,8c-0.3,3.8-0.1,6.3-0.1,6.4c0.1,1.3-0.8,2.5-2.1,2.7c0,0-1.5,0.3-2.6,2
	c-1.2,1.9-1.3,5-0.3,8.8c2.6,10.1,8.8,9,8.9,9C57.1,67.2,57.2,67.1,57.4,67.1z M86.3,5c-0.2,0-15.6,0.2-25.1,11.5
	c-4.2,4.9-6.3,10.9-7.3,16c2.2-1.1,5-2.9,7.4-5.5c3.6-3.9,5-10.9,5-11c0.2-1,0.9-1.7,1.9-2c1-0.2,2,0.1,2.6,0.9
	c0,0.1,4.6,6,14.8,10.5c8.1,3.6,25,2.6,31.9,2c-1.2-3.8-3.1-7.7-6-11.1C101.9,5.1,86.5,5,86.3,5z"/>
</svg>
