<?xml version="1.0" encoding="utf-8"?>
<!-- Generator: Adobe Illustrator 21.0.2, SVG Export Plug-In . SVG Version: 6.00 Build 0)  -->
<svg version="1.1" id="Capa_1" xmlns="http://www.w3.org/2000/svg" xmlns:xlink="http://www.w3.org/1999/xlink" x="0px" y="0px"
	 width="470px" height="470px" viewBox="0 0 470 470" style="enable-background:new 0 0 470 470;" xml:space="preserve">
<style type="text/css">
	.st0{fill:#99CCCC;}
</style>
<g>
	<path class="st0" d="M403.2,336c-0.5-0.5-1-0.9-1.6-1.3c-12.9-10.4-27.5-18.8-43.2-24.9c-0.4-0.2-0.8-0.4-1.3-0.5
		c-16.1-6.1-33.5-9.7-51.6-10.4c-1.4-1.9-3.6-3.1-6.1-3.1s-4.7,1.2-6.1,3.1c-18.1,0.7-35.4,4.3-51.6,10.4c-0.4,0.1-0.9,0.3-1.3,0.5
		c-15.7,6.1-30.2,14.5-43.2,24.9c-0.6,0.3-1.1,0.8-1.6,1.3c-36.6,30-60,75.6-60,126.5c0,4.1,3.4,7.5,7.5,7.5s7.5-3.4,7.5-7.5
		c0-40.6,16.4-77.5,42.9-104.3v102.7c0,0.6,0.1,1.1,0.2,1.6c0.7,3.4,3.7,5.9,7.3,5.9s6.6-2.5,7.3-5.9c0.1-0.5,0.2-1.1,0.2-1.6v-116
		c8.5-6.6,17.7-12.2,27.6-16.9v63.1c0,4.1,3.4,7.5,7.5,7.5h111.3c4.1,0,7.5-3.4,7.5-7.5V328c9.8,4.6,19.1,10.3,27.6,16.9v116
		c0,0.6,0.1,1.1,0.2,1.6c0.7,3.4,3.7,5.9,7.3,5.9s6.6-2.5,7.3-5.9c0.1-0.5,0.2-1.1,0.2-1.6V358.2c26.5,26.9,42.9,63.7,42.9,104.3
		c0,4.1,3.4,7.5,7.5,7.5s7.5-3.4,7.5-7.5C463.2,411.6,439.8,366,403.2,336z M251.4,383.6v-61.7c12.8-4.4,26.5-7.1,40.6-7.8v19.3
		c0,4.1,3.4,7.5,7.5,7.5s7.5-3.4,7.5-7.5v-19.3c14.1,0.7,27.8,3.4,40.6,7.8v61.7H251.4z"/>
	<path class="st0" d="M157.7,143.3V7.5c0-4.1-3.4-7.5-7.5-7.5s-7.5,3.4-7.5,7.5v128.3h-30.3V7.5c0-4.1-3.4-7.5-7.5-7.5
		s-7.5,3.4-7.5,7.5v128.3H67.1V7.5c0-4.1-3.4-7.5-7.5-7.5s-7.5,3.4-7.5,7.5v128.3H21.8V7.5c0-4.1-3.4-7.5-7.5-7.5S6.8,3.4,6.8,7.5
		v135.8c0,21.4,17.4,38.8,38.8,38.8h29.1v280.4c0,4.1,3.4,7.5,7.5,7.5s7.5-3.4,7.5-7.5V182.1h29.1
		C140.3,182.1,157.7,164.7,157.7,143.3z M23,150.8h118.4c-3.1,9.4-12.1,16.3-22.6,16.3H45.6C35.1,167.1,26.2,160.3,23,150.8z"/>
	<path class="st0" d="M180.9,182.1h33.5c-0.3,2.8-0.4,5.5-0.4,8.3c0,47.2,38.4,85.6,85.6,85.6c47.2,0,85.6-38.4,85.6-85.6
		c0-2.8-0.1-5.5-0.4-8.3H418c4.1,0,7.5-3.4,7.5-7.5s-3.4-7.5-7.5-7.5h-36l-17.4-72.3c-1.7-7.1-6.1-13.1-12.4-16.7
		c-6.3-3.6-13.6-4.4-20.7-2.3L300.4,85l-31.1-9.3c-7-2.1-14.4-1.3-20.7,2.3c-6.3,3.6-10.8,9.4-12.6,16.5l-18.6,72.5h-36.4
		c-4.1,0-7.5,3.4-7.5,7.5S176.8,182.1,180.9,182.1z M255.9,91.1c2.7-1.5,5.9-1.9,9-1l33.3,10c1.4,0.4,2.9,0.4,4.3,0l33.3-10
		c3.1-0.9,6.2-0.6,8.9,1c2.7,1.5,4.5,4.1,5.3,7.2l16.6,68.8H232.8l17.7-68.8C251.3,95.2,253.2,92.6,255.9,91.1z M370.1,190.4
		c0,38.9-31.6,70.6-70.6,70.6S229,229.3,229,190.4c0-2.8,0.2-5.5,0.5-8.3h140.1C369.9,184.8,370.1,187.6,370.1,190.4z"/>
	<path class="st0" d="M355.2,413.6h-61.3c-4.1,0-7.5,3.4-7.5,7.5s3.4,7.5,7.5,7.5h61.3c4.1,0,7.5-3.4,7.5-7.5
		S359.3,413.6,355.2,413.6z"/>
	<path class="st0" d="M263.9,413.6h-20c-4.1,0-7.5,3.4-7.5,7.5s3.4,7.5,7.5,7.5h20c4.1,0,7.5-3.4,7.5-7.5S268.1,413.6,263.9,413.6z"
		/>
</g>
</svg>
